<mxfile host="app.diagrams.net" modified="2023-11-24T13:28:31.744Z" agent="Mozilla/5.0 (Macintosh; Intel Mac OS X 10_15_7) AppleWebKit/537.36 (KHTML, like Gecko) Chrome/119.0.0.0 Safari/537.36" etag="lQUrRRRLzAUDFfQlNdL0" version="22.1.3" type="github">
  <diagram name="Pagina-1" id="HzgvCRaIhE4dybToQmu7">
    <mxGraphModel dx="562" dy="312" grid="1" gridSize="10" guides="1" tooltips="1" connect="1" arrows="1" fold="1" page="1" pageScale="1" pageWidth="827" pageHeight="1169" math="0" shadow="0">
      <root>
        <mxCell id="0" />
        <mxCell id="1" parent="0" />
        <mxCell id="z0yxNGBTKADzf_GTV8Ar-11" value="" style="group" vertex="1" connectable="0" parent="1">
          <mxGeometry x="100" y="80" width="40" height="80" as="geometry" />
        </mxCell>
        <mxCell id="z0yxNGBTKADzf_GTV8Ar-1" value="" style="rounded=0;whiteSpace=wrap;html=1;movable=1;resizable=1;rotatable=1;deletable=1;editable=1;locked=0;connectable=1;" vertex="1" parent="z0yxNGBTKADzf_GTV8Ar-11">
          <mxGeometry width="40" height="80" as="geometry" />
        </mxCell>
        <mxCell id="z0yxNGBTKADzf_GTV8Ar-2" value="" style="endArrow=none;html=1;rounded=0;movable=1;resizable=1;rotatable=1;deletable=1;editable=1;locked=0;connectable=1;" edge="1" parent="z0yxNGBTKADzf_GTV8Ar-11" target="z0yxNGBTKADzf_GTV8Ar-1">
          <mxGeometry width="50" height="50" relative="1" as="geometry">
            <mxPoint y="40" as="sourcePoint" />
            <mxPoint x="50" y="-10" as="targetPoint" />
            <Array as="points">
              <mxPoint x="10" y="50" />
              <mxPoint x="30" y="50" />
              <mxPoint x="40" y="40" />
            </Array>
          </mxGeometry>
        </mxCell>
        <mxCell id="z0yxNGBTKADzf_GTV8Ar-3" value="" style="endArrow=none;html=1;rounded=0;entryX=0.5;entryY=1;entryDx=0;entryDy=0;movable=1;resizable=1;rotatable=1;deletable=1;editable=1;locked=0;connectable=1;" edge="1" parent="z0yxNGBTKADzf_GTV8Ar-11" target="z0yxNGBTKADzf_GTV8Ar-1">
          <mxGeometry width="50" height="50" relative="1" as="geometry">
            <mxPoint x="20" y="50" as="sourcePoint" />
            <mxPoint x="120" y="30" as="targetPoint" />
          </mxGeometry>
        </mxCell>
        <mxCell id="z0yxNGBTKADzf_GTV8Ar-4" value="" style="endArrow=none;html=1;rounded=0;entryX=1;entryY=0.25;entryDx=0;entryDy=0;exitX=0;exitY=0.25;exitDx=0;exitDy=0;movable=1;resizable=1;rotatable=1;deletable=1;editable=1;locked=0;connectable=1;" edge="1" parent="z0yxNGBTKADzf_GTV8Ar-11" source="z0yxNGBTKADzf_GTV8Ar-1" target="z0yxNGBTKADzf_GTV8Ar-1">
          <mxGeometry width="50" height="50" relative="1" as="geometry">
            <mxPoint y="30" as="sourcePoint" />
            <mxPoint x="50" y="-20" as="targetPoint" />
            <Array as="points" />
          </mxGeometry>
        </mxCell>
        <mxCell id="z0yxNGBTKADzf_GTV8Ar-6" value="" style="endArrow=none;html=1;rounded=0;exitX=0;exitY=0.5;exitDx=0;exitDy=0;entryX=1;entryY=0.5;entryDx=0;entryDy=0;movable=1;resizable=1;rotatable=1;deletable=1;editable=1;locked=0;connectable=1;" edge="1" parent="z0yxNGBTKADzf_GTV8Ar-11" source="z0yxNGBTKADzf_GTV8Ar-1" target="z0yxNGBTKADzf_GTV8Ar-1">
          <mxGeometry width="50" height="50" relative="1" as="geometry">
            <mxPoint x="70" y="60" as="sourcePoint" />
            <mxPoint x="120" y="10" as="targetPoint" />
          </mxGeometry>
        </mxCell>
        <mxCell id="z0yxNGBTKADzf_GTV8Ar-12" value="" style="group" vertex="1" connectable="0" parent="1">
          <mxGeometry x="200" y="120" width="40" height="40" as="geometry" />
        </mxCell>
        <mxCell id="z0yxNGBTKADzf_GTV8Ar-7" value="" style="shape=cylinder3;whiteSpace=wrap;html=1;boundedLbl=1;backgroundOutline=1;size=15;movable=1;resizable=1;rotatable=1;deletable=1;editable=1;locked=0;connectable=1;" vertex="1" parent="z0yxNGBTKADzf_GTV8Ar-12">
          <mxGeometry width="40" height="40" as="geometry" />
        </mxCell>
        <mxCell id="z0yxNGBTKADzf_GTV8Ar-9" value="" style="endArrow=classic;startArrow=classic;html=1;rounded=0;exitX=0;exitY=0;exitDx=0;exitDy=15;exitPerimeter=0;entryX=1;entryY=0;entryDx=0;entryDy=15;entryPerimeter=0;movable=1;resizable=1;rotatable=1;deletable=1;editable=1;locked=0;connectable=1;" edge="1" parent="z0yxNGBTKADzf_GTV8Ar-12" source="z0yxNGBTKADzf_GTV8Ar-7" target="z0yxNGBTKADzf_GTV8Ar-7">
          <mxGeometry width="50" height="50" relative="1" as="geometry">
            <mxPoint y="60" as="sourcePoint" />
            <mxPoint x="40" y="10" as="targetPoint" />
          </mxGeometry>
        </mxCell>
        <mxCell id="z0yxNGBTKADzf_GTV8Ar-10" value="" style="endArrow=classic;startArrow=classic;html=1;rounded=0;exitX=0.5;exitY=0;exitDx=0;exitDy=0;exitPerimeter=0;movable=1;resizable=1;rotatable=1;deletable=1;editable=1;locked=0;connectable=1;" edge="1" parent="z0yxNGBTKADzf_GTV8Ar-12" source="z0yxNGBTKADzf_GTV8Ar-7">
          <mxGeometry width="50" height="50" relative="1" as="geometry">
            <mxPoint y="60" as="sourcePoint" />
            <mxPoint x="20" y="30" as="targetPoint" />
          </mxGeometry>
        </mxCell>
      </root>
    </mxGraphModel>
  </diagram>
</mxfile>
